<?xml version="1.0" encoding="UTF-8"?>
<svg xmlns="http://www.w3.org/2000/svg" xmlns:xlink="http://www.w3.org/1999/xlink" width="16px" height="16px" viewBox="0 0 16 16" version="1.1">
<defs>
<clipPath id="clip1">
  <path d="M 6.398438 0 L 9.601562 0 C 13.132812 0 16 2.867188 16 6.398438 L 16 9.601562 C 16 13.132812 13.132812 16 9.601562 16 L 6.398438 16 C 2.867188 16 0 13.132812 0 9.601562 L 0 6.398438 C 0 2.867188 2.867188 0 6.398438 0 Z M 6.398438 0 "/>
</clipPath>
<clipPath id="clip2">
  <path d="M 3 5 L 13 5 L 13 16 L 3 16 Z M 3 5 "/>
</clipPath>
<clipPath id="clip3">
  <path d="M 6.398438 0 L 9.601562 0 C 13.132812 0 16 2.867188 16 6.398438 L 16 9.601562 C 16 13.132812 13.132812 16 9.601562 16 L 6.398438 16 C 2.867188 16 0 13.132812 0 9.601562 L 0 6.398438 C 0 2.867188 2.867188 0 6.398438 0 Z M 6.398438 0 "/>
</clipPath>
</defs>
<g id="surface1">
<g clip-path="url(#clip1)" clip-rule="nonzero">
<rect x="0" y="0" width="16" height="16" style="fill:rgb(100%,94.117647%,94.117647%);fill-opacity:1;stroke:none;"/>
<path style="fill:none;stroke-width:1;stroke-linecap:butt;stroke-linejoin:miter;stroke:rgb(13.333334%,13.333334%,13.333334%);stroke-opacity:1;stroke-miterlimit:4;" d="M 14.501953 10.001953 C 14.501953 9.210937 15.550781 9 15.832031 9.738281 C 16.505859 11.53125 16.998047 13.130859 16.998047 13.998047 C 16.998047 16.763672 14.759766 19.001953 12 19.001953 C 9.240234 19.001953 7.001953 16.763672 7.001953 13.998047 C 7.001953 13.066406 7.570312 11.291016 8.320312 9.339844 C 9.298828 6.808594 9.785156 5.542969 10.388672 5.478516 C 10.582031 5.455078 10.792969 5.496094 10.962891 5.583984 C 11.501953 5.865234 11.501953 7.242187 11.501953 10.001953 C 11.501953 10.828125 12.169922 11.501953 13.001953 11.501953 C 13.828125 11.501953 14.501953 10.828125 14.501953 10.001953 Z M 14.501953 10.001953 " transform="matrix(0.666667,0,0,0.666667,0,0)"/>
</g>
<g clip-path="url(#clip2)" clip-rule="nonzero">
<g clip-path="url(#clip3)" clip-rule="nonzero">
<path style="fill:none;stroke-width:1;stroke-linecap:butt;stroke-linejoin:miter;stroke:rgb(13.333334%,13.333334%,13.333334%);stroke-opacity:1;stroke-miterlimit:4;" d="M 10.998047 19.001953 L 10.734375 18.345703 C 10.283203 17.203125 10.476562 15.908203 11.238281 14.947266 C 11.630859 14.460937 12.369141 14.460937 12.761719 14.947266 C 13.523437 15.908203 13.716797 17.203125 13.265625 18.345703 L 13.001953 19.001953 " transform="matrix(0.666667,0,0,0.666667,0,0)"/>
</g>
</g>
</g>
</svg>
